<?xml version="1.0" encoding="UTF-8"?>
<svg version="1.1" xmlns="http://www.w3.org/2000/svg" viewBox="0 0 1254 1254" width="100%" height="100%">
<path d="M0 0 C413.82 0 827.64 0 1254 0 C1254 413.82 1254 827.64 1254 1254 C840.18 1254 426.36 1254 0 1254 C0 840.18 0 426.36 0 0 Z " fill="#FDFDFD" transform="translate(0,0)"/>
<path d="M0 0 C2.78823496 0.00317483 5.57541922 -0.02046572 8.36352539 -0.0456543 C19.36671057 -0.08414738 29.49654601 0.81749681 40.22485352 3.31567383 C41.53996733 3.60900435 42.85523531 3.90164454 44.1706543 4.19360352 C86.68110522 13.87657201 130.3445858 35.14162678 155.22485352 72.31567383 C151.30351557 73.82832753 148.56858535 72.7383287 144.66235352 71.50317383 C133.6720041 68.04763832 123.3085467 66.99362885 111.78735352 67.06567383 C110.55436523 67.05793945 109.32137695 67.05020508 108.05102539 67.04223633 C100.24891719 67.05872256 92.87174911 67.76420662 85.22485352 69.31567383 C86.48297852 69.41364258 87.74110352 69.51161133 89.03735352 69.61254883 C132.99563197 73.32289188 166.44154496 94.54436286 197.84594727 124.15551758 C200.38153088 126.54059665 202.9560037 128.86276773 205.59985352 131.12817383 C222.89923923 146.22310219 234.412078 165.24097908 236.50854492 188.45727539 C238.19716478 220.03208836 229.50161512 248.51098015 208.22485352 272.31567383 C202.98766676 278.04994949 197.39943139 283.11045526 191.28735352 287.87817383 C190.69212891 288.34312256 190.0969043 288.80807129 189.48364258 289.28710938 C186.73302608 291.41985008 183.96705683 293.49925632 181.13110352 295.51879883 C171.44863296 302.70085116 166.51702464 312.07589223 164.55371094 323.85375977 C163.72408871 332.58727363 164.23544807 341.46837182 164.4921875 350.2265625 C164.56510646 352.87483584 164.6060105 355.52215419 164.64282227 358.17114258 C164.69094307 359.36987251 164.69094307 359.36987251 164.74003601 360.59281921 C164.79389926 366.62093841 163.08144666 370.67251713 159.22485352 375.31567383 C154.74096106 378.81310995 151.19232609 380.38081836 145.55688477 380.63208008 C144.66420898 380.67397461 143.7715332 380.71586914 142.85180664 380.7590332 C141.92303711 380.79834961 140.99426758 380.83766602 140.03735352 380.87817383 C139.09698242 380.92135742 138.15661133 380.96454102 137.18774414 381.0090332 C134.86692497 381.11506047 132.54600027 381.21712412 130.22485352 381.31567383 C129.9605957 382.0555957 129.69633789 382.79551758 129.42407227 383.55786133 C127.07871124 388.95142773 123.01263475 393.82840017 117.59985352 396.31567383 C114.5691983 397.21364574 112.35104554 397.5998731 109.22485352 397.31567383 C109.13204102 398.61504883 109.13204102 398.61504883 109.03735352 399.94067383 C108.05426022 404.02429214 106.52852357 406.75457181 103.22485352 409.31567383 C101.67059715 409.76210917 100.10675133 410.17579198 98.53735352 410.56567383 C91.84400648 412.86961524 89.92907258 418.6091242 86.90576172 424.52416992 C82.35759025 433.30715283 76.61831228 439.3706742 67.08813477 442.69067383 C56.95124759 444.90336407 47.50282583 443.78078494 38.22485352 439.31567383 C37.33411133 438.89157227 36.44336914 438.4674707 35.52563477 438.03051758 C24.55911279 432.41428165 15.30032772 424.71190272 6.59985352 416.08911133 C4.43834856 414.13057755 4.43834856 414.13057755 2.13110352 414.21411133 C-4.8958534 418.27477086 -7.95933037 429.7430822 -9.99780273 437.10083008 C-14.78855199 456.91382827 -12.69143911 475.94114798 -6.77514648 495.31567383 C-10.71729324 491.70261062 -13.37614698 488.0186908 -15.83764648 483.25317383 C-16.35307007 482.26788696 -16.35307007 482.26788696 -16.87890625 481.26269531 C-27.09920132 461.22703739 -27.5326065 437.37316205 -20.74389648 416.08129883 C-17.22037444 406.89157243 -11.12815791 393.85287937 -1.77514648 389.31567383 C1.94316152 388.81619962 3.68420924 388.98181612 6.90063477 390.96801758 C8.20581055 392.09916992 8.20581055 392.09916992 9.53735352 393.25317383 C10.49512695 394.07817383 11.45290039 394.90317383 12.43969727 395.75317383 C14.90706895 398.0232942 17.26659987 400.34687173 19.59985352 402.75317383 C29.47890763 412.82559021 43.46615362 424.61018531 58.03735352 425.56567383 C63.45202563 425.47509381 67.58191612 423.80559254 71.61547852 420.14770508 C75.01559453 416.4574594 77.75022232 412.45517645 80.56274414 408.31176758 C83.94123203 403.44045945 86.73551114 400.6210634 92.34985352 398.75317383 C95.06556304 397.84622933 96.14676675 397.39376059 98.22485352 395.31567383 C98.2469284 392.63753984 98.2469284 392.63753984 97.84985352 389.69067383 C97.73899414 388.6877832 97.62813477 387.68489258 97.51391602 386.65161133 C97.37083008 385.49532227 97.37083008 385.49532227 97.22485352 384.31567383 C98.14266602 384.3852832 99.06047852 384.45489258 100.00610352 384.52661133 C107.06796449 384.83816402 112.3128699 385.03989213 117.74829102 380.17114258 C120.17515055 377.1215175 121.06919742 374.02593815 122.22485352 370.31567383 C123.81770802 368.21084102 124.61237373 367.40925843 127.24609375 367.00683594 C128.00092041 367.03527588 128.75574707 367.06371582 129.53344727 367.09301758 C130.36295898 367.11170898 131.1924707 367.13040039 132.04711914 367.1496582 C132.91014648 367.18381836 133.77317383 367.21797852 134.66235352 367.25317383 C136.36907937 367.31335096 138.07615452 367.36445778 139.78344727 367.40551758 C140.53940186 367.43508545 141.29535645 367.46465332 142.07421875 367.49511719 C144.57129658 367.28676752 146.10972917 366.64214697 148.22485352 365.31567383 C149.91487823 361.9356244 149.27940724 358.10296702 149.21704102 354.38989258 C149.19949546 352.54159105 149.18259007 350.69328336 149.16625977 348.8449707 C149.1355564 345.94009109 149.10037597 343.03552482 149.0534668 340.13085938 C148.68321841 315.92951112 154.25051533 300.3538795 169.23266602 281.21630859 C177.76528305 270.22778351 184.57433274 258.48075101 189.22485352 245.31567383 C189.61672852 244.2612207 190.00860352 243.20676758 190.41235352 242.12036133 C196.01865494 224.71746733 194.49847386 205.59197848 189.22485352 188.31567383 C188.91676758 187.2405957 188.60868164 186.16551758 188.29125977 185.05786133 C187.63360145 182.79853756 186.95072631 180.55378161 186.22485352 178.31567383 C181.82869833 181.13422978 177.80074628 184.2088453 173.84985352 187.62817383 C173.25479004 188.14017334 172.65972656 188.65217285 172.04663086 189.1796875 C166.53201186 193.96764577 161.19958572 198.94386569 155.90698242 203.97509766 C151.44668518 208.2104818 146.87801459 212.29359994 142.22485352 216.31567383 C141.65814941 216.8097876 141.09144531 217.30390137 140.50756836 217.81298828 C131.95842919 225.26506881 123.22415069 232.41519134 114.22485352 239.31567383 C113.48493164 239.88688965 112.74500977 240.45810547 111.98266602 241.04663086 C80.62087893 265.20420415 45.91926409 286.29255044 9.22485352 301.31567383 C8.25290039 301.72301758 7.28094727 302.13036133 6.27954102 302.55004883 C2.79369044 303.98601116 -0.51075572 305.25078894 -4.18139648 306.15161133 C-8.12856856 307.43015185 -10.48718209 309.03847771 -13.71264648 311.62817383 C-14.25840332 312.06186279 -14.80416016 312.49555176 -15.36645508 312.94238281 C-17.17897762 314.38858768 -18.97736444 315.85119636 -20.77514648 317.31567383 C-22.11207072 318.39418985 -23.4493189 319.47230441 -24.78686523 320.55004883 C-27.53407386 322.76848275 -30.27112711 324.99868848 -33.00170898 327.23754883 C-35.20808554 329.04526203 -37.42590465 330.82435272 -39.67358398 332.58129883 C-62.82809582 350.7989628 -81.81488355 374.8489908 -92.77514648 402.31567383 C-93.10643555 403.12004883 -93.43772461 403.92442383 -93.77905273 404.75317383 C-101.74902034 425.25630618 -103.89720137 445.59645363 -104.02514648 467.44067383 C-104.03457275 468.66189941 -104.04399902 469.883125 -104.05371094 471.14135742 C-104.02823913 478.14370082 -103.33780417 484.50523734 -101.77514648 491.31567383 C-101.53161248 493.16800819 -101.30064087 495.02207987 -101.08764648 496.87817383 C-98.33015543 515.0049367 -92.11214801 532.58228747 -84.77514648 549.31567383 C-84.30987549 550.39655273 -84.30987549 550.39655273 -83.83520508 551.49926758 C-73.33154453 575.71712055 -58.21169113 597.5897508 -40.77514648 617.31567383 C-39.98237305 618.21930664 -39.18959961 619.12293945 -38.37280273 620.05395508 C-33.6866724 625.33286087 -28.81110301 630.37183846 -23.77514648 635.31567383 C-21.18086604 637.89719552 -18.6033737 640.49187629 -16.04858398 643.11254883 C-10.4928984 648.79243719 -4.8396889 654.09359855 1.38891602 659.04614258 C4.49512521 661.53196564 7.51554032 664.10378767 10.53735352 666.69067383 C19.87294787 674.63822551 29.60140008 682.08249028 39.32592773 689.54418945 C49.42636407 697.30103046 59.4294301 705.17581493 69.22485352 713.31567383 C69.73371094 713.73816406 70.24256836 714.1606543 70.7668457 714.59594727 C82.30812053 724.20081367 93.28787624 734.28752547 103.94754028 744.86312866 C105.36925882 746.27294006 106.7949214 747.67877062 108.22070312 749.08447266 C114.32675558 755.18289322 119.87869389 761.5451228 125.22485352 768.31567383 C125.79437744 769.02062988 126.36390137 769.72558594 126.95068359 770.4519043 C155.55795948 805.93716575 173.48670865 846.87988506 168.95239258 893.0925293 C166.73973274 908.7409862 160.15878064 925.04017817 150.22485352 937.31567383 C149.74532227 938.03625977 149.26579102 938.7568457 148.77172852 939.49926758 C147.36474457 941.48218725 146.16416143 942.85697099 144.22485352 944.31567383 C135.5204915 944.51329608 128.30602864 940.46999513 120.66235352 936.75317383 C119.30312542 936.10382789 117.94342118 935.45547772 116.58325195 934.80810547 C112.78778331 932.99615316 109.0047915 931.15980752 105.22485352 929.31567383 C104.38905762 928.90833008 103.55326172 928.50098633 102.69213867 928.08129883 C99.57122079 926.55208583 96.46492141 924.9971468 93.36938477 923.41723633 C90.0284323 921.71247872 86.66629665 920.05385514 83.29907227 918.40161133 C70.5239545 912.11336566 58.00899981 905.52399446 45.66625977 898.42504883 C41.38970664 895.96574719 37.07358568 893.5949381 32.72949219 891.25756836 C20.20776354 884.50537359 8.21170574 876.96839303 -3.77514648 869.31567383 C-4.96865723 868.55722168 -4.96865723 868.55722168 -6.1862793 867.78344727 C-24.2111301 856.31884986 -41.69820985 844.14814559 -58.77514648 831.31567383 C-59.68321045 830.63359863 -59.68321045 830.63359863 -60.60961914 829.93774414 C-78.01981005 816.81073262 -94.89349347 802.90799208 -110.83764648 788.03442383 C-113.21075269 785.8251894 -115.62837146 783.67911331 -118.08764648 781.56567383 C-121.48988119 778.62705601 -124.6299575 775.47868676 -127.78295898 772.27661133 C-129.67841722 770.41088577 -131.62961383 768.66908128 -133.65014648 766.94067383 C-140.63705103 760.91464025 -147.01805427 754.31124434 -153.00561523 747.30004883 C-154.96676025 745.1007957 -157.03951831 743.05912252 -159.15014648 741.00317383 C-163.23301028 736.97548387 -166.8079041 732.68039119 -170.38842773 728.20629883 C-172.9385683 725.11774888 -175.60827776 722.18214961 -178.33764648 719.25317383 C-183.08813411 714.1307041 -187.49055263 708.83181188 -191.77514648 703.31567383 C-192.81219049 702.00781378 -193.85001839 700.7005751 -194.88842773 699.39379883 C-203.63360856 688.33707276 -211.86740423 676.98502231 -219.77514648 665.31567383 C-220.32557617 664.50372559 -220.87600586 663.69177734 -221.44311523 662.85522461 C-257.88862387 608.73883842 -281.23234408 547.7098452 -289.31860352 482.96899414 C-289.59318862 480.77172596 -289.87553595 478.57537848 -290.1730957 476.38110352 C-293.99719249 448.11604033 -292.52164886 419.33698965 -287.77514648 391.31567383 C-287.48304157 389.44595058 -287.19134389 387.57616363 -286.90014648 385.70629883 C-283.37674803 364.2954938 -276.4473846 343.70745759 -266.77514648 324.31567383 C-266.4295166 323.61877441 -266.08388672 322.921875 -265.7277832 322.20385742 C-255.96986387 302.73945004 -242.92330016 284.92636655 -227.77514648 269.31567383 C-227.20924805 268.72399414 -226.64334961 268.13231445 -226.06030273 267.52270508 C-218.05389021 259.17193073 -209.83542063 251.51835059 -200.53881836 244.6262207 C-198.7456681 243.29376907 -196.97095585 241.93919647 -195.19702148 240.58129883 C-186.41640982 233.92860857 -177.22942638 228.12154764 -167.76049805 222.50219727 C-166.00145596 221.45092518 -164.25813165 220.37345118 -162.51733398 219.29223633 C-161.63303711 218.7430957 -160.74874023 218.19395508 -159.83764648 217.62817383 C-159.10674805 217.17055664 -158.37584961 216.71293945 -157.62280273 216.24145508 C-155.77514648 215.31567383 -155.77514648 215.31567383 -152.77514648 215.31567383 C-153.46479492 214.50227539 -154.15444336 213.68887695 -154.86499023 212.85083008 C-174.45473565 189.2029585 -180.63863114 163.77715589 -178.50170898 133.43286133 C-174.02116007 96.99669938 -152.09269917 63.97532723 -123.90893555 41.22290039 C-107.7030172 28.64291778 -88.57024318 16.91579952 -68.77514648 11.31567383 C-67.12640467 10.78292571 -65.48032979 10.24181962 -63.83764648 9.69067383 C-63.16862305 9.4715332 -62.49959961 9.25239258 -61.81030273 9.02661133 C-59.72582124 8.32679654 -59.72582124 8.32679654 -57.56811523 7.35473633 C-53.78994048 5.94914964 -49.96525769 5.14109811 -46.02514648 4.31567383 C-45.28393555 4.15067383 -44.54272461 3.98567383 -43.77905273 3.81567383 C-29.2612678 0.74414247 -14.79780869 -0.03512447 0 0 Z " fill="#39978A" transform="translate(455.775146484375,142.684326171875)"/>
</svg>
